<svg width="170" height="70" viewBox="0 0 170 70" fill="none" xmlns="http://www.w3.org/2000/svg">
<path d="M151.629 12.9521V25.1982H146.33V12.9521H151.629Z" fill="#E2400F"/>
<path d="M156.807 28.7012L160.311 54.6592H156.991C156.991 54.6205 156.989 54.5816 156.984 54.543L154.381 32.5234C154.353 32.2834 154.237 32.0619 154.057 31.9014C153.876 31.741 153.643 31.6522 153.401 31.6523H147.599C147.357 31.6524 147.124 31.7409 146.943 31.9014C146.763 32.0619 146.648 32.2836 146.62 32.5234L144.015 54.543C144.01 54.5816 144.008 54.6205 144.008 54.6592H140.689L144.193 28.7012H156.807Z" fill="#E2400F"/>
<path d="M130 55H170V58H130V55Z" fill="#E2400F"/>
<path d="M150.5 2.89166L153.724 6.83413H147.276L150.5 2.89166ZM142.552 25.1975H158.448V28.7011H142.552V25.1975Z" fill="#E2400F"/>
<path d="M150.5 0.50824V2.89167M142.552 25.1975H158.448V28.7012H142.552V25.1975Z" stroke="#E2400F" stroke-width="0.5" stroke-linecap="round" stroke-linejoin="round"/>
<path d="M154.67 15.9103H146.33M155.565 12.952H145.435M142.552 25.1975L141.66 23.6089M158.448 25.1975L159.341 23.6089M155.651 51.6598L153.401 32.6387H147.599L145.349 51.6598M146.33 12.952H154.67V25.1985H146.33V12.952ZM147.886 6.83413H153.082V12.951H147.886V6.83413ZM150.5 2.89166L153.724 6.83413H147.276L150.5 2.89166Z" stroke="#E2400F" stroke-width="0.5" stroke-linecap="round" stroke-linejoin="round"/>
<path d="M160.311 54.6596L156.806 28.7012H144.194L140.689 54.6596H160.311Z" stroke="#E2400F" stroke-width="0.5" stroke-linecap="round" stroke-linejoin="round"/>
<path d="M131 54.8575H169" stroke="#E2400F" stroke-width="0.50025" stroke-linecap="round" stroke-linejoin="round"/>
<path d="M2.38187 23.2267V21.7333H17.1019C19.9463 21.7333 22.2041 22.1244 23.8752 22.9067C25.5463 23.6889 26.7374 24.72 27.4485 26C28.1952 27.28 28.5685 28.7022 28.5685 30.2667V31.7067C28.5685 33.5556 27.9819 35.1556 26.8085 36.5067C25.6708 37.8222 23.9997 38.7644 21.7952 39.3333C24.4974 39.7956 26.5597 40.7556 27.9819 42.2133C29.4397 43.6711 30.1685 45.5022 30.1685 47.7067V49.2C30.1685 50.8 29.7952 52.2756 29.0485 53.6267C28.3019 54.9422 27.0574 56.0089 25.3152 56.8267C23.6085 57.6089 21.3152 58 18.4352 58H2.38187V56.5067L5.31521 56.1333C5.8841 56.0622 6.22187 55.92 6.32854 55.7067C6.43521 55.4578 6.48854 54.7289 6.48854 53.52V26.2133C6.48854 25.0044 6.43521 24.2933 6.32854 24.08C6.22187 23.8311 5.8841 23.6711 5.31521 23.6L2.38187 23.2267ZM17.1019 23.6H12.8885V38.5333H17.1019C18.6308 38.5333 19.7863 38.0178 20.5685 36.9867C21.3508 35.92 21.7419 34.2489 21.7419 31.9733V30.2667C21.7419 27.9556 21.3508 26.2667 20.5685 25.2C19.7863 24.1333 18.6308 23.6 17.1019 23.6ZM18.4352 40.4H12.8885V56.1333H18.4352C20.0352 56.1333 21.2441 55.6 22.0619 54.5333C22.9152 53.4311 23.3419 51.6533 23.3419 49.2V47.44C23.3419 42.7467 21.7063 40.4 18.4352 40.4ZM58.7131 56.6667C58.1442 57.2 57.4509 57.6444 56.6331 58C55.8509 58.3556 54.8909 58.5333 53.7531 58.5333C52.2954 58.5333 51.0687 58.2133 50.0731 57.5733C49.1131 56.9333 48.4731 56.0267 48.1531 54.8533C46.9798 56.1333 45.682 57.0756 44.2598 57.68C42.8731 58.2489 41.4509 58.5333 39.9931 58.5333C37.5398 58.5333 35.7087 57.8578 34.4998 56.5067C33.2909 55.12 32.6865 53.3956 32.6865 51.3333C32.6865 49.2356 33.4509 47.5467 34.9798 46.2667C36.5087 44.9511 39.2109 44.2933 43.0865 44.2933H47.9398V39.9733C47.9398 37.0222 47.5487 35.0133 46.7665 33.9467C46.0198 32.8444 44.9709 32.2933 43.6198 32.2933C42.7309 32.2933 41.9131 32.5244 41.1665 32.9867C40.4198 33.4133 39.8865 34.2311 39.5665 35.44C39.282 36.6133 39.3353 38.32 39.7265 40.56L33.8598 39.7067C33.5753 38.0711 33.7531 36.56 34.3931 35.1733C35.0687 33.7511 36.1887 32.6133 37.7531 31.76C39.3176 30.8711 41.3087 30.4267 43.7265 30.4267C46.4642 30.4267 48.5798 30.8711 50.0731 31.76C51.5665 32.6489 52.5976 33.8222 53.1665 35.28C53.7709 36.7378 54.0731 38.3022 54.0731 39.9733V52.2933C54.0731 54.1067 54.2331 55.2444 54.5531 55.7067C54.8731 56.1689 55.2287 56.4 55.6198 56.4C56.2598 56.4 56.9709 56.0267 57.7531 55.28L58.7131 56.6667ZM42.3398 55.7067C43.2642 55.7067 44.1709 55.4756 45.0598 55.0133C45.9842 54.5156 46.9442 53.6089 47.9398 52.2933V46.16H43.9398C42.1976 46.16 40.9353 46.5689 40.1531 47.3867C39.3709 48.2044 38.9798 49.4844 38.9798 51.2267C38.9798 52.6489 39.2642 53.7511 39.8331 54.5333C40.402 55.3156 41.2376 55.7067 42.3398 55.7067ZM76.531 52.4533C76.0688 54.6222 75.1799 56.1867 73.8644 57.1467C72.5844 58.0711 71.0199 58.5333 69.171 58.5333C67.2866 58.5333 65.7399 58.1244 64.531 57.3067C63.3222 56.4533 62.4333 55.3333 61.8644 53.9467C61.2955 52.56 61.011 51.0844 61.011 49.52V35.44C61.011 34.2311 60.9577 33.52 60.851 33.3067C60.7444 33.0578 60.4066 32.8978 59.8377 32.8267L56.9044 32.4533V30.96H61.011V24.7733L67.1444 23.5467V30.96H75.6777V32.8267H67.1444V50.5867C67.1444 52.8622 67.4288 54.4444 67.9977 55.3333C68.5666 56.1867 69.2955 56.6133 70.1844 56.6133C71.1088 56.6133 71.8199 56.2578 72.3177 55.5467C72.851 54.8356 73.1888 53.5378 73.331 51.6533L76.531 52.4533ZM103.119 56.6667C102.55 57.2 101.857 57.6444 101.039 58C100.257 58.3556 99.2972 58.5333 98.1594 58.5333C96.7016 58.5333 95.4749 58.2133 94.4794 57.5733C93.5194 56.9333 92.8794 56.0267 92.5594 54.8533C91.386 56.1333 90.0883 57.0756 88.666 57.68C87.2794 58.2489 85.8572 58.5333 84.3994 58.5333C81.946 58.5333 80.1149 57.8578 78.906 56.5067C77.6972 55.12 77.0927 53.3956 77.0927 51.3333C77.0927 49.2356 77.8572 47.5467 79.386 46.2667C80.9149 44.9511 83.6172 44.2933 87.4927 44.2933H92.346V39.9733C92.346 37.0222 91.9549 35.0133 91.1727 33.9467C90.426 32.8444 89.3772 32.2933 88.026 32.2933C87.1372 32.2933 86.3194 32.5244 85.5727 32.9867C84.826 33.4133 84.2927 34.2311 83.9727 35.44C83.6883 36.6133 83.7416 38.32 84.1327 40.56L78.266 39.7067C77.9816 38.0711 78.1594 36.56 78.7994 35.1733C79.4749 33.7511 80.5949 32.6133 82.1594 31.76C83.7238 30.8711 85.7149 30.4267 88.1327 30.4267C90.8705 30.4267 92.986 30.8711 94.4794 31.76C95.9727 32.6489 97.0038 33.8222 97.5727 35.28C98.1772 36.7378 98.4794 38.3022 98.4794 39.9733V52.2933C98.4794 54.1067 98.6394 55.2444 98.9594 55.7067C99.2794 56.1689 99.6349 56.4 100.026 56.4C100.666 56.4 101.377 56.0267 102.159 55.28L103.119 56.6667ZM86.746 55.7067C87.6705 55.7067 88.5772 55.4756 89.466 55.0133C90.3905 54.5156 91.3505 53.6089 92.346 52.2933V46.16H88.346C86.6038 46.16 85.3416 46.5689 84.5594 47.3867C83.7772 48.2044 83.386 49.4844 83.386 51.2267C83.386 52.6489 83.6705 53.7511 84.2394 54.5333C84.8083 55.3156 85.6438 55.7067 86.746 55.7067ZM123.542 35.44L115.969 58H111.116L103.542 35.44C103.293 34.6222 103.08 34.0533 102.902 33.7333C102.76 33.3778 102.582 33.1467 102.369 33.04C102.191 32.9333 101.907 32.8622 101.516 32.8267L98.5823 32.4533V30.96H112.982V32.4533L110.049 32.8267C109.516 32.8978 109.231 33.04 109.196 33.2533C109.16 33.4667 109.338 34.1956 109.729 35.44L115.596 53.1467L121.516 35.44C121.907 34.1956 122.085 33.4667 122.049 33.2533C122.049 33.04 121.765 32.8978 121.196 32.8267L118.262 32.4533V30.96H128.449V32.4533L125.516 32.8267C125.16 32.8622 124.876 32.9333 124.662 33.04C124.485 33.1467 124.325 33.3778 124.182 33.7333C124.04 34.0533 123.827 34.6222 123.542 35.44ZM133.879 26.3733C132.776 26.3733 131.887 26.0356 131.212 25.36C130.536 24.6489 130.199 23.7422 130.199 22.64C130.199 21.5378 130.536 20.6489 131.212 19.9733C131.887 19.2978 132.776 18.96 133.879 18.96C134.945 18.96 135.834 19.2978 136.545 19.9733C137.256 20.6489 137.612 21.5378 137.612 22.64C137.612 23.7422 137.256 24.6489 136.545 25.36C135.834 26.0356 134.945 26.3733 133.879 26.3733ZM126.732 32.4533V30.96H136.972V53.52C136.972 54.7289 137.025 55.4578 137.132 55.7067C137.239 55.92 137.576 56.0622 138.145 56.1333L141.079 56.5067V58H126.732V56.5067L129.665 56.1333C130.234 56.0622 130.572 55.92 130.679 55.7067C130.785 55.4578 130.839 54.7289 130.839 53.52V35.44C130.839 34.2311 130.785 33.52 130.679 33.3067C130.572 33.0578 130.234 32.8978 129.665 32.8267L126.732 32.4533Z" fill="#E2400F"/>
</svg>
