<svg width="170" height="71" viewBox="0 0 170 71" fill="none" xmlns="http://www.w3.org/2000/svg">
<path d="M151.629 13.4439V25.69H146.33V13.4439H151.629Z" fill="white"/>
<path d="M156.807 29.1929L160.311 55.1509H156.991C156.991 55.1123 156.989 55.0733 156.984 55.0347L154.381 33.0152C154.353 32.7752 154.237 32.5536 154.057 32.3931C153.876 32.2328 153.643 32.144 153.401 32.1441H147.599C147.357 32.1442 147.124 32.2327 146.943 32.3931C146.763 32.5536 146.648 32.7753 146.62 33.0152L144.015 55.0347C144.01 55.0733 144.008 55.1123 144.008 55.1509H140.689L144.193 29.1929H156.807Z" fill="white"/>
<path d="M130 55.4918H170V58.4918H130V55.4918Z" fill="white"/>
<path d="M150.5 3.38342L153.724 7.3259H147.276L150.5 3.38342ZM142.552 25.6893H158.448V29.1929H142.552V25.6893Z" fill="white"/>
<path d="M150.5 1V3.38343M142.552 25.6893H158.448V29.1929H142.552V25.6893Z" stroke="white" stroke-width="0.5" stroke-linecap="round" stroke-linejoin="round"/>
<path d="M154.67 16.4021H146.33M155.565 13.4437H145.435M142.552 25.6893L141.66 24.1006M158.448 25.6893L159.341 24.1006M155.651 52.1515L153.401 33.1304H147.599L145.349 52.1515M146.33 13.4437H154.67V25.6902H146.33V13.4437ZM147.886 7.3259H153.082V13.4427H147.886V7.3259ZM150.5 3.38342L153.724 7.3259H147.276L150.5 3.38342Z" stroke="white" stroke-width="0.5" stroke-linecap="round" stroke-linejoin="round"/>
<path d="M160.311 55.1513L156.806 29.1929H144.194L140.689 55.1513H160.311Z" stroke="white" stroke-width="0.5" stroke-linecap="round" stroke-linejoin="round"/>
<path d="M131 55.3493H169" stroke="white" stroke-width="0.50025" stroke-linecap="round" stroke-linejoin="round"/>
<path d="M2.38187 23.7184V22.2251H17.1019C19.9463 22.2251 22.2041 22.6162 23.8752 23.3984C25.5463 24.1806 26.7374 25.2118 27.4485 26.4918C28.1952 27.7718 28.5685 29.194 28.5685 30.7584V32.1984C28.5685 34.0473 27.9819 35.6473 26.8085 36.9984C25.6708 38.314 23.9997 39.2562 21.7952 39.8251C24.4974 40.2873 26.5597 41.2473 27.9819 42.7051C29.4397 44.1629 30.1685 45.994 30.1685 48.1984V49.6918C30.1685 51.2918 29.7952 52.7673 29.0485 54.1184C28.3019 55.434 27.0574 56.5006 25.3152 57.3184C23.6085 58.1006 21.3152 58.4918 18.4352 58.4918H2.38187V56.9984L5.31521 56.6251C5.8841 56.554 6.22187 56.4118 6.32854 56.1984C6.43521 55.9495 6.48854 55.2206 6.48854 54.0118V26.7051C6.48854 25.4962 6.43521 24.7851 6.32854 24.5718C6.22187 24.3229 5.8841 24.1629 5.31521 24.0918L2.38187 23.7184ZM17.1019 24.0918H12.8885V39.0251H17.1019C18.6308 39.0251 19.7863 38.5095 20.5685 37.4784C21.3508 36.4118 21.7419 34.7406 21.7419 32.4651V30.7584C21.7419 28.4473 21.3508 26.7584 20.5685 25.6918C19.7863 24.6251 18.6308 24.0918 17.1019 24.0918ZM18.4352 40.8918H12.8885V56.6251H18.4352C20.0352 56.6251 21.2441 56.0918 22.0619 55.0251C22.9152 53.9229 23.3419 52.1451 23.3419 49.6918V47.9318C23.3419 43.2384 21.7063 40.8918 18.4352 40.8918ZM58.7131 57.1584C58.1442 57.6918 57.4509 58.1362 56.6331 58.4918C55.8509 58.8473 54.8909 59.0251 53.7531 59.0251C52.2954 59.0251 51.0687 58.7051 50.0731 58.0651C49.1131 57.4251 48.4731 56.5184 48.1531 55.3451C46.9798 56.6251 45.682 57.5673 44.2598 58.1718C42.8731 58.7406 41.4509 59.0251 39.9931 59.0251C37.5398 59.0251 35.7087 58.3495 34.4998 56.9984C33.2909 55.6118 32.6865 53.8873 32.6865 51.8251C32.6865 49.7273 33.4509 48.0384 34.9798 46.7584C36.5087 45.4429 39.2109 44.7851 43.0865 44.7851H47.9398V40.4651C47.9398 37.514 47.5487 35.5051 46.7665 34.4384C46.0198 33.3362 44.9709 32.7851 43.6198 32.7851C42.7309 32.7851 41.9131 33.0162 41.1665 33.4784C40.4198 33.9051 39.8865 34.7229 39.5665 35.9318C39.282 37.1051 39.3353 38.8118 39.7265 41.0518L33.8598 40.1984C33.5753 38.5629 33.7531 37.0518 34.3931 35.6651C35.0687 34.2429 36.1887 33.1051 37.7531 32.2518C39.3176 31.3629 41.3087 30.9184 43.7265 30.9184C46.4642 30.9184 48.5798 31.3629 50.0731 32.2518C51.5665 33.1406 52.5976 34.314 53.1665 35.7718C53.7709 37.2295 54.0731 38.794 54.0731 40.4651V52.7851C54.0731 54.5984 54.2331 55.7362 54.5531 56.1984C54.8731 56.6606 55.2287 56.8918 55.6198 56.8918C56.2598 56.8918 56.9709 56.5184 57.7531 55.7718L58.7131 57.1584ZM42.3398 56.1984C43.2642 56.1984 44.1709 55.9673 45.0598 55.5051C45.9842 55.0073 46.9442 54.1006 47.9398 52.7851V46.6518H43.9398C42.1976 46.6518 40.9353 47.0606 40.1531 47.8784C39.3709 48.6962 38.9798 49.9762 38.9798 51.7184C38.9798 53.1406 39.2642 54.2429 39.8331 55.0251C40.402 55.8073 41.2376 56.1984 42.3398 56.1984ZM76.531 52.9451C76.0688 55.114 75.1799 56.6784 73.8644 57.6384C72.5844 58.5629 71.0199 59.0251 69.171 59.0251C67.2866 59.0251 65.7399 58.6162 64.531 57.7984C63.3222 56.9451 62.4333 55.8251 61.8644 54.4384C61.2955 53.0518 61.011 51.5762 61.011 50.0118V35.9318C61.011 34.7229 60.9577 34.0118 60.851 33.7984C60.7444 33.5495 60.4066 33.3895 59.8377 33.3184L56.9044 32.9451V31.4518H61.011V25.2651L67.1444 24.0384V31.4518H75.6777V33.3184H67.1444V51.0784C67.1444 53.354 67.4288 54.9362 67.9977 55.8251C68.5666 56.6784 69.2955 57.1051 70.1844 57.1051C71.1088 57.1051 71.8199 56.7495 72.3177 56.0384C72.851 55.3273 73.1888 54.0295 73.331 52.1451L76.531 52.9451ZM103.119 57.1584C102.55 57.6918 101.857 58.1362 101.039 58.4918C100.257 58.8473 99.2972 59.0251 98.1594 59.0251C96.7016 59.0251 95.4749 58.7051 94.4794 58.0651C93.5194 57.4251 92.8794 56.5184 92.5594 55.3451C91.386 56.6251 90.0883 57.5673 88.666 58.1718C87.2794 58.7406 85.8572 59.0251 84.3994 59.0251C81.946 59.0251 80.1149 58.3495 78.906 56.9984C77.6972 55.6118 77.0927 53.8873 77.0927 51.8251C77.0927 49.7273 77.8572 48.0384 79.386 46.7584C80.9149 45.4429 83.6172 44.7851 87.4927 44.7851H92.346V40.4651C92.346 37.514 91.9549 35.5051 91.1727 34.4384C90.426 33.3362 89.3772 32.7851 88.026 32.7851C87.1372 32.7851 86.3194 33.0162 85.5727 33.4784C84.826 33.9051 84.2927 34.7229 83.9727 35.9318C83.6883 37.1051 83.7416 38.8118 84.1327 41.0518L78.266 40.1984C77.9816 38.5629 78.1594 37.0518 78.7994 35.6651C79.4749 34.2429 80.5949 33.1051 82.1594 32.2518C83.7238 31.3629 85.7149 30.9184 88.1327 30.9184C90.8705 30.9184 92.986 31.3629 94.4794 32.2518C95.9727 33.1406 97.0038 34.314 97.5727 35.7718C98.1772 37.2295 98.4794 38.794 98.4794 40.4651V52.7851C98.4794 54.5984 98.6394 55.7362 98.9594 56.1984C99.2794 56.6606 99.6349 56.8918 100.026 56.8918C100.666 56.8918 101.377 56.5184 102.159 55.7718L103.119 57.1584ZM86.746 56.1984C87.6705 56.1984 88.5772 55.9673 89.466 55.5051C90.3905 55.0073 91.3505 54.1006 92.346 52.7851V46.6518H88.346C86.6038 46.6518 85.3416 47.0606 84.5594 47.8784C83.7772 48.6962 83.386 49.9762 83.386 51.7184C83.386 53.1406 83.6705 54.2429 84.2394 55.0251C84.8083 55.8073 85.6438 56.1984 86.746 56.1984ZM123.542 35.9318L115.969 58.4918H111.116L103.542 35.9318C103.293 35.114 103.08 34.5451 102.902 34.2251C102.76 33.8695 102.582 33.6384 102.369 33.5318C102.191 33.4251 101.907 33.354 101.516 33.3184L98.5823 32.9451V31.4518H112.982V32.9451L110.049 33.3184C109.516 33.3895 109.231 33.5318 109.196 33.7451C109.16 33.9584 109.338 34.6873 109.729 35.9318L115.596 53.6384L121.516 35.9318C121.907 34.6873 122.085 33.9584 122.049 33.7451C122.049 33.5318 121.765 33.3895 121.196 33.3184L118.262 32.9451V31.4518H128.449V32.9451L125.516 33.3184C125.16 33.354 124.876 33.4251 124.662 33.5318C124.485 33.6384 124.325 33.8695 124.182 34.2251C124.04 34.5451 123.827 35.114 123.542 35.9318ZM133.879 26.8651C132.776 26.8651 131.887 26.5273 131.212 25.8518C130.536 25.1406 130.199 24.234 130.199 23.1318C130.199 22.0295 130.536 21.1406 131.212 20.4651C131.887 19.7895 132.776 19.4518 133.879 19.4518C134.945 19.4518 135.834 19.7895 136.545 20.4651C137.256 21.1406 137.612 22.0295 137.612 23.1318C137.612 24.234 137.256 25.1406 136.545 25.8518C135.834 26.5273 134.945 26.8651 133.879 26.8651ZM126.732 32.9451V31.4518H136.972V54.0118C136.972 55.2206 137.025 55.9495 137.132 56.1984C137.239 56.4118 137.576 56.554 138.145 56.6251L141.079 56.9984V58.4918H126.732V56.9984L129.665 56.6251C130.234 56.554 130.572 56.4118 130.679 56.1984C130.785 55.9495 130.839 55.2206 130.839 54.0118V35.9318C130.839 34.7229 130.785 34.0118 130.679 33.7984C130.572 33.5495 130.234 33.3895 129.665 33.3184L126.732 32.9451Z" fill="white"/>
</svg>
